<?xml version="1.0" standalone="no"?>
<!DOCTYPE svg PUBLIC "-//W3C//DTD SVG 20010904//EN"
 "http://www.w3.org/TR/2001/REC-SVG-20010904/DTD/svg10.dtd">
<svg version="1.0" xmlns="http://www.w3.org/2000/svg"
 width="400.000000pt" height="400.000000pt" viewBox="0 0 400.000000 400.000000"
 preserveAspectRatio="xMidYMid meet">
<metadata>
Created by potrace 1.14, written by Peter Selinger 2001-2017
</metadata>
<g transform="translate(0.000000,400.000000) scale(0.100000,-0.100000)"
fill="#000000" stroke="none">
<path d="M2025 3006 c-194 -61 -305 -223 -305 -441 0 -44 6 -106 14 -137 7
-32 10 -58 6 -58 -3 0 -31 13 -61 30 -74 40 -158 60 -249 60 -75 0 -169 -17
-203 -37 -17 -9 -15 -12 21 -34 22 -13 90 -72 151 -130 124 -120 188 -159 261
-159 64 0 110 18 120 46 5 13 14 24 19 24 13 0 272 -459 311 -550 77 -184 79
-335 5 -444 -14 -21 -23 -41 -20 -45 14 -23 -113 -103 -171 -108 -52 -4 -67
-10 -59 -24 4 -5 2 -9 -4 -9 -5 0 -13 4 -16 10 -3 5 -17 10 -31 10 -30 0 -76
23 -128 63 -28 23 -36 26 -28 11 15 -28 51 -59 97 -83 30 -16 58 -21 116 -21
65 0 85 4 139 31 148 74 260 251 260 410 0 68 -43 226 -88 321 -21 46 -74 142
-117 213 -140 233 -187 356 -201 524 -11 135 36 280 116 356 25 24 138 95 151
95 3 0 24 -30 45 -66 74 -127 187 -213 398 -303 71 -31 50 -36 -41 -11 -158
43 -328 150 -379 237 -34 61 -33 60 -44 43 -15 -23 -12 -89 6 -126 36 -75 120
-121 368 -201 181 -59 237 -82 273 -116 13 -11 26 -17 30 -14 12 12 -43 210
-80 287 -84 175 -230 300 -403 345 -70 18 -223 19 -279 1z m-50 -84 c-6 -5
-31 -26 -56 -48 l-46 -39 49 48 c27 26 52 47 56 47 3 0 2 -4 -3 -8z m-199
-557 c-3 -8 -10 -15 -15 -15 -7 0 -6 10 1 26 12 26 25 16 14 -11z m-141 -165
c29 -11 34 -30 8 -30 -19 0 -83 36 -83 46 0 7 34 -1 75 -16z"/>
<path d="M2041 2610 c-64 -114 -18 -305 119 -505 159 -229 335 -286 466 -151
62 64 84 122 84 222 0 154 -86 274 -196 274 -54 0 -267 56 -325 86 -26 13 -64
44 -86 69 l-39 46 -23 -41z"/>
<path d="M2070 1120 c-9 -6 -10 -10 -3 -10 6 0 15 5 18 10 8 12 4 12 -15 0z"/>
</g>
</svg>
