<?xml version="1.0" standalone="no"?>
<!DOCTYPE svg PUBLIC "-//W3C//DTD SVG 20010904//EN"
 "http://www.w3.org/TR/2001/REC-SVG-20010904/DTD/svg10.dtd">
<svg version="1.0" xmlns="http://www.w3.org/2000/svg"
 width="784.000000pt" height="318.000000pt" viewBox="0 0 784.000000 318.000000"
 preserveAspectRatio="xMidYMid meet">

<g transform="translate(0.000000,318.000000) scale(0.100000,-0.100000)"
fill="#ffffff" stroke="none">
<path d="M6545 3123 c-64 -81 -125 -206 -132 -273 -5 -57 11 -140 27 -140 6 0
10 -9 10 -20 0 -25 -12 -25 -80 1 -47 18 -76 21 -210 20 -132 0 -170 -4 -255
-25 -122 -31 -365 -115 -365 -126 0 -30 207 -159 322 -201 130 -48 202 -60
346 -61 148 0 362 34 362 58 0 28 -112 102 -202 133 -52 18 -174 41 -296 56
-61 8 -64 22 -6 42 105 37 270 23 451 -37 51 -16 95 -30 98 -30 2 0 2 26 -1
58 -5 46 -2 66 13 95 l19 37 89 -80 c50 -44 94 -80 98 -80 5 0 29 22 52 48 68
76 143 128 200 140 28 6 58 14 68 17 9 4 17 3 17 -3 0 -5 -15 -15 -32 -22 -72
-28 -145 -126 -178 -238 -11 -36 -20 -45 -64 -66 -57 -27 -192 -72 -243 -82
-35 -7 -40 -16 -41 -83 -1 -51 -91 -342 -107 -346 -71 -19 -93 -26 -107 -37
-10 -7 -31 -51 -48 -97 -30 -83 -30 -83 -8 -76 49 16 95 17 101 3 2 -8 -6 -45
-18 -84 -124 -371 -165 -506 -165 -541 0 -73 60 -123 150 -123 61 0 120 27
149 69 27 38 97 189 106 230 10 46 -6 38 -37 -19 -30 -53 -54 -63 -82 -34 -9
8 -16 30 -16 48 0 54 113 428 138 459 7 8 29 17 50 21 55 8 81 32 113 102 39
86 38 98 -6 90 -116 -21 -109 -21 -103 0 25 86 126 358 146 394 40 71 92 120
161 152 117 52 221 138 273 223 38 62 71 161 64 190 -5 21 -12 25 -45 25 -46
0 -195 -42 -254 -71 -23 -12 -67 -41 -98 -65 -31 -24 -59 -40 -63 -37 -3 3 -6
34 -6 68 0 113 -89 250 -220 338 -30 20 -62 37 -72 37 -9 0 -37 -26 -63 -57z
m71 -305 c1 -51 -1 -59 -11 -45 -7 9 -16 13 -20 9 -12 -11 3 68 16 84 6 8 12
14 13 14 0 0 2 -28 2 -62z m14 -91 c0 -11 -1 -18 -3 -16 -1 2 -8 11 -15 20 -9
13 -9 16 3 16 8 0 15 -9 15 -20z m-265 -67 c-3 -5 -15 -10 -26 -10 -10 0 -19
5 -19 10 0 6 12 10 26 10 14 0 23 -4 19 -10z m-395 -95 c0 -32 -46 -48 -128
-43 -118 7 -136 31 -36 47 87 15 164 13 164 -4z m749 -327 c-12 -20 -14 -21
-17 -5 -2 10 2 25 9 34 18 21 23 0 8 -29z m-83 -320 c-16 -64 -58 -118 -91
-118 -24 0 -17 19 25 67 26 30 46 66 57 106 14 47 19 54 21 34 2 -15 -4 -55
-12 -89z m-215 -688 l-9 -55 -1 45 c0 25 2 56 6 70 12 41 14 0 4 -60z"/>
<path d="M1293 3046 c-291 -56 -478 -284 -508 -621 -7 -72 14 -255 34 -309 13
-32 24 -28 52 22 l20 37 -4 -47 c-5 -56 -30 -100 -52 -92 -8 4 -15 14 -15 23
-1 33 -181 122 -299 147 -107 22 -262 18 -374 -10 -134 -34 -140 -39 -89 -65
51 -26 145 -104 214 -177 98 -104 222 -206 286 -237 87 -41 176 -47 253 -18
50 19 57 25 68 61 6 22 17 40 24 40 7 0 30 -33 52 -72 38 -72 65 -119 232
-408 242 -417 310 -646 258 -868 -15 -63 -56 -155 -74 -167 -6 -3 -20 -20 -32
-38 l-22 -32 31 29 c45 41 49 27 7 -22 -63 -73 -255 -183 -273 -155 -5 6 -24
5 -57 -3 -36 -8 -42 -12 -22 -13 15 0 27 -5 27 -10 0 -18 -33 -21 -63 -6 -16
8 -37 15 -46 15 -41 0 -193 92 -223 135 -5 6 -8 4 -8 -5 0 -7 26 -39 58 -70
80 -79 171 -114 280 -109 66 3 90 10 162 45 150 72 240 154 325 293 118 195
119 422 4 714 -52 129 -90 205 -189 367 -124 203 -193 327 -228 411 -132 317
-135 645 -8 842 59 94 219 223 297 242 25 6 29 2 59 -56 105 -207 272 -345
565 -464 118 -49 129 -55 118 -66 -11 -11 -172 30 -263 67 -114 46 -173 80
-290 167 -104 78 -118 92 -149 151 -48 95 -72 85 -73 -29 -1 -108 71 -196 223
-272 46 -23 206 -82 354 -131 272 -90 374 -132 409 -171 28 -31 50 -28 42 7
-3 15 -11 54 -17 86 -15 90 -83 278 -130 365 -126 230 -344 405 -579 465 -91
23 -277 29 -367 12z m278 -113 c33 -17 48 -29 37 -31 -9 -2 -43 10 -75 27 -36
19 -50 30 -37 31 11 0 45 -12 75 -27z m-331 13 c0 -2 -20 -16 -44 -30 -67 -39
-153 -123 -202 -195 -24 -36 -44 -62 -44 -57 0 25 68 129 113 174 57 56 177
129 177 108z m-748 -1037 c32 -20 92 -49 133 -64 83 -31 88 -34 75 -55 -15
-24 -89 10 -196 90 -52 39 -94 74 -94 76 0 6 4 4 82 -47z"/>
<path d="M1276 2457 c-66 -112 -69 -238 -10 -417 54 -162 142 -314 267 -461
124 -146 232 -209 368 -217 68 -4 84 -1 135 22 147 67 234 220 234 410 0 140
-34 238 -113 323 -70 76 -156 105 -199 66 -17 -15 -22 -14 -75 14 -32 16 -110
42 -173 58 -190 46 -305 109 -365 199 -16 25 -33 46 -37 46 -4 0 -18 -19 -32
-43z m89 -178 c19 -35 10 -54 -11 -25 -13 19 -20 56 -9 56 2 0 12 -14 20 -31z"/>
<path d="M2733 1919 c-40 -10 -112 -20 -159 -24 l-86 -7 34 -35 c32 -33 33
-37 32 -111 -2 -131 -64 -336 -215 -708 -89 -221 -182 -419 -237 -504 -23 -35
-42 -66 -42 -69 0 -4 72 -6 159 -6 l159 0 7 75 c27 309 110 591 266 906 106
213 180 281 295 272 71 -6 97 -31 120 -114 36 -133 -12 -282 -118 -367 -42
-33 -114 -46 -160 -28 -15 6 -44 35 -65 67 l-37 56 -17 -38 c-10 -22 -18 -49
-18 -60 -1 -20 47 -72 95 -101 18 -11 17 -12 -6 -12 -14 -1 -38 8 -55 19 -44
29 -64 25 -81 -15 -24 -57 -19 -78 27 -107 47 -30 125 -44 193 -34 58 9 178
86 234 152 45 51 113 182 153 294 20 56 23 84 24 200 0 130 -1 137 -30 193
-16 33 -40 67 -53 78 -68 53 -178 45 -251 -17 -22 -20 -41 -39 -41 -44 0 -4
19 -12 43 -16 l42 -7 -38 -13 c-21 -7 -45 -10 -53 -7 -11 4 -29 -7 -52 -33
-30 -33 -37 -36 -40 -21 -2 10 8 57 23 104 14 46 25 88 23 92 -2 4 -36 -1 -75
-10z m-53 -127 c0 -13 -12 -22 -22 -16 -10 6 -1 24 13 24 5 0 9 -4 9 -8z m395
-502 c-20 -39 -81 -107 -109 -122 -20 -11 -20 -10 -6 8 8 10 25 30 38 44 12
14 37 46 55 72 35 50 48 49 22 -2z m-720 -427 c-59 -190 -68 -218 -78 -231 -5
-7 -11 -11 -13 -9 -2 2 21 78 51 168 30 90 55 166 55 168 0 2 3 2 6 -2 3 -3
-6 -45 -21 -94z"/>
<path d="M7115 1925 c-60 -21 -128 -101 -185 -219 -54 -111 -69 -156 -51 -156
6 0 22 25 35 55 26 58 61 80 91 55 25 -21 17 -75 -30 -192 -55 -136 -105 -316
-105 -379 0 -103 111 -159 215 -109 70 33 175 146 175 188 0 26 51 57 67 41 7
-7 25 7 56 41 26 28 45 55 44 58 -2 8 62 152 68 152 8 0 -29 -101 -65 -175
-32 -65 -47 -86 -73 -98 -42 -20 -46 -29 -106 -212 -70 -212 -108 -308 -141
-353 -18 -26 -25 -43 -19 -49 7 -7 1 -16 -17 -28 -38 -25 -127 -13 -162 22
l-26 26 24 16 c14 9 39 30 56 48 17 18 40 33 52 33 56 0 3 97 -73 131 -178 81
-374 -96 -281 -255 77 -132 321 -165 498 -69 157 85 226 230 423 885 107 354
132 425 176 492 22 32 39 59 39 60 0 2 -28 -3 -62 -10 -77 -16 -170 -18 -221
-3 -46 12 -53 8 -36 -22 37 -70 -21 -322 -117 -510 -72 -140 -134 -191 -193
-157 -23 12 -26 20 -25 64 1 31 18 97 44 170 69 197 95 344 70 408 -18 50 -83
72 -145 51z m488 -135 c-3 -11 -9 -23 -14 -26 -10 -6 -12 39 -3 49 12 12 22
-3 17 -23z m-473 -9 c0 -24 -12 -32 -30 -21 -11 7 -11 11 -1 24 18 22 31 20
31 -3z m-83 -423 c-3 -8 -6 -5 -6 6 -1 11 2 17 5 13 3 -3 4 -12 1 -19z m-16
-151 c-13 -13 -15 37 -3 98 7 38 7 37 10 -24 2 -36 -2 -69 -7 -74z m-250 -520
c-8 -8 -11 -7 -11 4 0 20 13 34 18 19 3 -7 -1 -17 -7 -23z"/>
<path d="M3615 1914 c-64 -33 -102 -87 -182 -259 -51 -110 -61 -145 -40 -145
8 0 22 20 32 45 24 64 61 105 94 105 64 0 66 -40 7 -227 -79 -249 -108 -311
-203 -442 l-17 -24 49 9 c28 5 107 9 178 9 l127 0 -6 30 c-13 54 -5 141 21
245 57 224 123 378 174 405 44 22 78 19 96 -9 18 -27 11 -51 -28 -93 l-20 -23
34 0 c56 0 177 68 213 118 28 39 31 51 30 111 -2 114 -38 161 -123 161 -51 0
-123 -47 -155 -103 -27 -46 -32 -62 -17 -53 5 4 20 2 33 -3 l23 -9 -28 -13
c-20 -9 -31 -9 -39 -1 -8 8 -15 7 -26 -4 -20 -20 -32 -3 -32 47 0 59 -18 94
-59 117 -46 26 -94 28 -136 6z m410 -123 c7 -12 -12 -24 -25 -16 -11 7 -4 25
10 25 5 0 11 -4 15 -9z m-365 -16 c0 -8 -7 -15 -15 -15 -16 0 -20 12 -8 23 11
12 23 8 23 -8z m-106 -564 c-9 -29 -19 -50 -21 -47 -3 3 3 28 12 56 9 28 19
49 22 47 2 -3 -3 -28 -13 -56z"/>
<path d="M4647 1880 c-26 -23 -52 -51 -58 -62 -10 -19 -9 -20 65 -13 50 5 76
4 76 -3 0 -6 -30 -14 -67 -17 -116 -12 -145 -36 -198 -166 -29 -72 -30 -79
-11 -79 7 0 30 25 49 55 46 68 83 88 161 87 64 -1 93 -15 130 -66 17 -22 21
-42 21 -104 -1 -65 -6 -88 -31 -142 -39 -83 -74 -123 -127 -149 -53 -26 -109
-26 -162 -2 -120 54 -155 212 -89 393 14 40 28 85 31 101 4 18 32 50 87 99
101 89 109 100 59 86 -76 -20 -158 -73 -234 -148 -59 -59 -85 -95 -122 -170
-80 -161 -87 -293 -22 -426 61 -125 138 -182 261 -192 99 -8 188 24 265 95 95
88 156 188 211 346 16 48 22 86 22 167 1 120 -11 168 -57 236 -50 74 -97 107
-159 111 -50 4 -56 2 -101 -37z m-263 -192 c-5 -7 -21 -32 -36 -55 -35 -52
-58 -112 -69 -183 -7 -51 -8 -49 -5 25 5 98 27 156 74 195 40 33 47 36 36 18z
m435 -382 c-23 -49 -100 -136 -120 -136 -6 0 6 19 28 43 22 23 55 66 73 94 19
29 36 51 38 49 2 -2 -7 -25 -19 -50z"/>
<path d="M5455 1915 c-5 -2 -21 -6 -35 -9 -54 -11 -119 -91 -185 -227 -47 -96
-60 -148 -30 -118 9 8 24 31 34 49 25 48 67 78 89 64 31 -20 26 -77 -17 -198
-120 -342 -129 -455 -41 -501 86 -44 211 16 295 143 36 54 28 83 -20 75 -23
-4 -43 0 -60 11 -42 28 -35 84 40 301 36 105 70 212 75 239 12 59 0 114 -32
143 -21 19 -90 37 -113 28z m-5 -145 c0 -5 -4 -10 -10 -10 -5 0 -10 5 -10 10
0 6 5 10 10 10 6 0 10 -4 10 -10z m-83 -452 c-3 -7 -5 -2 -5 12 0 14 2 19 5
13 2 -7 2 -19 0 -25z m-10 -110 c-2 -18 -4 -6 -4 27 0 33 2 48 4 33 2 -15 2
-42 0 -60z"/>
<path d="M5828 1862 c5 -64 -17 -168 -69 -329 -50 -153 -90 -242 -130 -288
-36 -41 -32 -56 7 -30 l27 17 -7 -60 c-9 -77 8 -146 42 -172 34 -27 115 -27
159 0 43 26 115 125 164 225 21 45 39 85 39 88 0 16 -29 5 -35 -12 -3 -10 -19
-38 -36 -61 -24 -33 -35 -41 -57 -38 -26 3 -27 5 -26 68 1 53 15 106 74 280
40 118 87 248 106 289 19 41 34 74 34 75 0 1 -66 1 -148 1 l-147 0 3 -53z
m103 -99 c-9 -16 -10 -15 -11 8 0 14 3 29 8 33 12 12 14 -22 3 -41z m-132
-457 c-12 -47 -27 -86 -32 -86 -5 0 -6 12 -3 28 4 15 11 43 15 62 12 48 31 94
37 88 2 -3 -5 -44 -17 -92z"/>
<path d="M1289 203 c-13 -16 -12 -17 4 -4 16 13 21 21 13 21 -2 0 -10 -8 -17
-17z"/>
</g>
</svg>
